<svg width="443" height="179" viewBox="0 0 443 179" fill="none" xmlns="http://www.w3.org/2000/svg">
<g clip-path="url(#clip0_634_8)">
<rect width="443.027" height="147.003" rx="30" fill="black"/>
<path d="M34 105.138V41.8651H60.3842C65.1214 41.8651 69.0863 42.5344 72.2788 43.8732C75.4918 45.212 77.9016 47.0863 79.5082 49.4961C81.1353 51.9059 81.9489 54.6967 81.9489 57.8686C81.9489 60.2784 81.4442 62.4308 80.435 64.3256C79.4258 66.1999 78.0355 67.755 76.2642 68.9908C74.4929 70.2266 72.4435 71.0916 70.1161 71.5859V72.2038C72.6701 72.3274 75.0284 73.0174 77.1911 74.2738C79.3743 75.5302 81.125 77.2809 82.4432 79.5259C83.7614 81.7504 84.4205 84.3867 84.4205 87.435C84.4205 90.8335 83.5554 93.8715 81.8253 96.549C80.0952 99.206 77.5927 101.307 74.3178 102.852C71.043 104.376 67.0678 105.138 62.3924 105.138H34ZM49.293 92.8107H58.7468C62.0629 92.8107 64.5036 92.1825 66.0689 90.9261C67.6548 89.6697 68.4478 87.919 68.4478 85.674C68.4478 84.0469 68.0668 82.6463 67.3047 81.4723C66.5426 80.2777 65.4613 79.3612 64.0607 78.7227C62.6602 78.0636 60.9815 77.734 59.0249 77.734H49.293V92.8107ZM49.293 67.8786H57.7582C59.4265 67.8786 60.9094 67.6005 62.207 67.0444C63.5046 66.4883 64.5138 65.685 65.2347 64.6346C65.9762 63.5842 66.3469 62.3175 66.3469 60.8345C66.3469 58.7131 65.5952 57.0447 64.0916 55.8295C62.5881 54.6143 60.5593 54.0068 58.0053 54.0068H49.293V67.8786Z" fill="white"/>
<path d="M96.0975 94.6335V82.7081L122.018 41.8651H132.615V58.054H126.467L111.298 82.0902V82.5845H148.835V94.6335H96.0975ZM126.653 105.138V90.9879L126.961 85.7667V41.8651H141.266V105.138H126.653Z" fill="white"/>
<path d="M162.196 105.138V41.8651H188.58C193.317 41.8651 197.282 42.5344 200.475 43.8732C203.688 45.212 206.097 47.0863 207.704 49.4961C209.331 51.9059 210.145 54.6967 210.145 57.8686C210.145 60.2784 209.64 62.4308 208.631 64.3256C207.622 66.1999 206.231 67.755 204.46 68.9908C202.689 70.2266 200.639 71.0916 198.312 71.5859V72.2038C200.866 72.3274 203.224 73.0174 205.387 74.2738C207.57 75.5302 209.321 77.2809 210.639 79.5259C211.957 81.7504 212.616 84.3867 212.616 87.435C212.616 90.8335 211.751 93.8715 210.021 96.549C208.291 99.206 205.789 101.307 202.514 102.852C199.239 104.376 195.264 105.138 190.588 105.138H162.196ZM177.489 92.8107H186.943C190.259 92.8107 192.699 92.1825 194.265 90.9261C195.851 89.6697 196.644 87.919 196.644 85.674C196.644 84.0469 196.263 82.6463 195.501 81.4723C194.738 80.2777 193.657 79.3612 192.257 78.7227C190.856 78.0636 189.177 77.734 187.221 77.734H177.489V92.8107ZM177.489 67.8786H185.954C187.622 67.8786 189.105 67.6005 190.403 67.0444C191.7 66.4883 192.71 65.685 193.431 64.6346C194.172 63.5842 194.543 62.3175 194.543 60.8345C194.543 58.7131 193.791 57.0447 192.287 55.8295C190.784 54.6143 188.755 54.0068 186.201 54.0068H177.489V67.8786Z" fill="white"/>
<path d="M225.189 105.138V41.8651H240.482V92.718H266.805V105.138H225.189Z" fill="white"/>
<path d="M337.197 73.5014C337.197 80.4631 335.859 86.364 333.181 91.2042C330.504 96.0444 326.879 99.7209 322.306 102.234C317.754 104.746 312.646 106.003 306.982 106.003C301.298 106.003 296.179 104.736 291.628 102.203C287.076 99.6694 283.461 95.9929 280.783 91.1733C278.126 86.3331 276.798 80.4425 276.798 73.5014C276.798 66.5398 278.126 60.6389 280.783 55.7987C283.461 50.9585 287.076 47.282 291.628 44.7692C296.179 42.2564 301.298 41 306.982 41C312.646 41 317.754 42.2564 322.306 44.7692C326.879 47.282 330.504 50.9585 333.181 55.7987C335.859 60.6389 337.197 66.5398 337.197 73.5014ZM321.565 73.5014C321.565 69.3821 320.978 65.9013 319.804 63.059C318.65 60.2166 316.982 58.0643 314.799 56.6019C312.636 55.1396 310.031 54.4084 306.982 54.4084C303.955 54.4084 301.349 55.1396 299.166 56.6019C296.983 58.0643 295.304 60.2166 294.13 63.059C292.977 65.9013 292.4 69.3821 292.4 73.5014C292.4 77.6207 292.977 81.1016 294.13 83.9439C295.304 86.7862 296.983 88.9386 299.166 90.4009C301.349 91.8633 303.955 92.5945 306.982 92.5945C310.031 92.5945 312.636 91.8633 314.799 90.4009C316.982 88.9386 318.65 86.7862 319.804 83.9439C320.978 81.1016 321.565 77.6207 321.565 73.5014Z" fill="white"/>
<path d="M392.869 62.5337C392.519 61.2362 392.004 60.093 391.324 59.1044C390.644 58.0952 389.81 57.2404 388.822 56.5401C387.833 55.8398 386.7 55.3146 385.423 54.9645C384.146 54.5938 382.746 54.4084 381.221 54.4084C378.153 54.4084 375.496 55.1499 373.251 56.6328C371.026 58.1158 369.306 60.2784 368.091 63.1207C366.876 65.9425 366.268 69.3718 366.268 73.4087C366.268 77.4663 366.855 80.9265 368.029 83.7894C369.203 86.6523 370.903 88.8356 373.127 90.3391C375.351 91.8427 378.05 92.5945 381.221 92.5945C384.023 92.5945 386.391 92.1413 388.327 91.2351C390.284 90.3082 391.767 89.0004 392.776 87.3114C393.785 85.6225 394.29 83.6349 394.29 81.3487L397.132 81.6886H381.747V70.5355H409.027V78.908C409.027 84.5721 407.822 89.4226 405.412 93.4595C403.023 97.4964 399.727 100.596 395.526 102.759C391.345 104.922 386.535 106.003 381.098 106.003C375.063 106.003 369.759 104.695 365.187 102.079C360.615 99.4634 357.051 95.7354 354.497 90.8952C351.943 86.0344 350.666 80.2674 350.666 73.5941C350.666 68.4038 351.439 63.8004 352.984 59.7841C354.528 55.7472 356.681 52.3281 359.441 49.527C362.221 46.7259 365.434 44.6044 369.08 43.1626C372.746 41.7209 376.69 41 380.913 41C384.579 41 387.987 41.5252 391.139 42.5756C394.311 43.6261 397.112 45.109 399.542 47.0245C401.993 48.94 403.981 51.2159 405.505 53.8523C407.029 56.4886 407.976 59.3825 408.347 62.5337H392.869Z" fill="white"/>
<path d="M226.949 176.782C224.565 180.258 219.435 180.258 217.051 176.782L195.531 145.393C192.801 141.411 195.652 136 200.479 136L243.521 136C248.348 136 251.199 141.411 248.469 145.393L226.949 176.782Z" fill="black"/>
</g>
<defs>
<clipPath id="clip0_634_8">
<rect width="443" height="179" fill="white"/>
</clipPath>
</defs>
</svg>
